<svg xmlns="http://www.w3.org/2000/svg" xmlns:xlink="http://www.w3.org/1999/xlink" width="618.533" height="441.463" viewBox="0 0 618.533 441.463">
  <defs>
    <filter id="Path_8" x="105.419" y="306.714" width="276.796" height="134.748" filterUnits="userSpaceOnUse">
      <feOffset input="SourceAlpha"/>
      <feGaussianBlur stdDeviation="5" result="blur"/>
      <feFlood flood-opacity="0.161"/>
      <feComposite operator="in" in2="blur"/>
      <feComposite in="SourceGraphic"/>
    </filter>
    <filter id="Path_11" x="0" y="0" width="276.796" height="134.748" filterUnits="userSpaceOnUse">
      <feOffset input="SourceAlpha"/>
      <feGaussianBlur stdDeviation="5" result="blur-2"/>
      <feFlood flood-opacity="0.161"/>
      <feComposite operator="in" in2="blur-2"/>
      <feComposite in="SourceGraphic"/>
    </filter>
    <filter id="Path_13" x="0" y="163.266" width="276.796" height="134.748" filterUnits="userSpaceOnUse">
      <feOffset input="SourceAlpha"/>
      <feGaussianBlur stdDeviation="5" result="blur-3"/>
      <feFlood flood-opacity="0.161"/>
      <feComposite operator="in" in2="blur-3"/>
      <feComposite in="SourceGraphic"/>
    </filter>
    <filter id="Path_19" x="340.103" y="43.429" width="278.43" height="278.43" filterUnits="userSpaceOnUse">
      <feOffset input="SourceAlpha"/>
      <feGaussianBlur stdDeviation="5" result="blur-4"/>
      <feFlood flood-opacity="0.161"/>
      <feComposite operator="in" in2="blur-4"/>
      <feComposite in="SourceGraphic"/>
    </filter>
  </defs>
  <g id="Group_35" data-name="Group 35" transform="translate(-492.733 -361.808)">
    <g id="Group_34" data-name="Group 34">
      <g id="OBJECTS" transform="translate(507.733 238)">
        <g id="Group_33" data-name="Group 33">
          <g transform="matrix(1, 0, 0, 1, -15, 123.81)" filter="url(#Path_8)">
            <path id="Path_8-2" data-name="Path 8" d="M116.694,152.65h151.3a59.776,59.776,0,0,1,59.773,59.773V257.4h-211.1L80.97,206.177l35.694-53.527Z" transform="translate(39.45 169.06)" fill="#fafcff"/>
          </g>
          <path id="Path_9" data-name="Path 9" d="M116.654,152.65h18.708L99.026,206l25.421,36.482H327.756V257.4h-211.1L80.96,206.177Z" transform="translate(24.489 292.873)" fill="#da636b"/>
          <path id="Path_10" data-name="Path 10" d="M68.861,259.374l97.189-97.189L155.484,151.62,47.73,259.374Z" transform="translate(283.18 290.896)" fill="#da636b"/>
          <g transform="matrix(1, 0, 0, 1, -15, 123.81)" filter="url(#Path_11)">
            <path id="Path_11-2" data-name="Path 11" d="M152.813,47.56h151.3a59.776,59.776,0,0,1,59.773,59.773v44.975h-211.1L117.09,101.087,152.784,47.56Z" transform="translate(-102.09 -32.56)" fill="#fafcff"/>
          </g>
          <path id="Path_12" data-name="Path 12" d="M127.274,47.56h18.708l-36.336,53.352,25.421,36.482H412.8v14.914H127.274L91.58,101.087Z" transform="translate(-91.551 91.248)" fill="#f25160"/>
          <g transform="matrix(1, 0, 0, 1, -15, 123.81)" filter="url(#Path_13)">
            <path id="Path_13-2" data-name="Path 13" d="M152.813,103.5h151.3a59.776,59.776,0,0,1,59.773,59.773v44.975h-211.1L117.09,157.027,152.784,103.5Z" transform="translate(-102.09 74.77)" fill="#fafcff"/>
          </g>
          <path id="Path_14" data-name="Path 14" d="M123.194,103.5H141.9l-36.336,53.323L130.987,193.3H420.628v14.943H123.194L87.5,157.027Z" transform="translate(-87.471 198.574)" fill="#f8a7af"/>
          <path id="Path_15" data-name="Path 15" d="M42.9,190.713c0-.671-.058-1.343-.058-2.043A181.458,181.458,0,0,1,94.762,61.39L224.084,190.713Z" transform="translate(239.417 117.782)" fill="#f25160"/>
          <path id="Path_16" data-name="Path 16" d="M224.026,105.7,96.717,233.009A181.3,181.3,0,0,1,42.84,105.7Z" transform="translate(239.475 202.795)" fill="#f8a7af"/>
          <path id="Path_18" data-name="Path 18" d="M170.149,105.719V285.738A181.5,181.5,0,0,1,42.84,233L170.149,105.69Z" transform="translate(293.352 202.776)" fill="#da636b"/>
          <g transform="matrix(1, 0, 0, 1, -15, 123.81)" filter="url(#Path_19)">
            <path id="Path_19-2" data-name="Path 19" d="M124.215,0A124.215,124.215,0,1,0,248.43,124.215,124.215,124.215,0,0,0,124.215,0Z" transform="translate(355.1 58.43)" fill="#fafcff"/>
          </g>
        </g>
      </g>
      <text id="الفن_نشاط_بشري" data-name="الفن نشاط
بشري" transform="translate(1061 534)" fill="#2d2d2d" font-size="41" font-family="Tajawal-Medium, Tajawal" font-weight="500"><tspan x="-190.363" y="0">الفن نشاط</tspan><tspan y="0"></tspan><tspan x="-104.714" y="57">بشري</tspan></text>
      <text id="يعتبر_الفن_فكر_ذهني_خالص" data-name="يعتبر الفن
فكر ذهني خالص" transform="translate(700 415)" fill="#f25160" font-size="20" font-family="Tajawal-Regular, Tajawal"><tspan x="-81.26" y="0">يعتبر الفن</tspan><tspan y="0"></tspan><tspan x="-129.38" y="28">فكر ذهني خالص</tspan></text>
      <text id="يُعبِّرُ_عن_العالم_الخارجي_للفنان" data-name="يُعبِّرُ عن العالم
الخارجي للفنان" transform="translate(694 579)" fill="#f8a7af" font-size="20" font-family="Tajawal-Regular, Tajawal"><tspan x="-117.28" y="0">يُعبِّرُ عن العالم</tspan><tspan y="0"></tspan><tspan x="-114.4" y="28">الخارجي للفنان</tspan></text>
      <text id="يُعبِّرُ_عن_العالم_الداخلي_للفنان" data-name="يُعبِّرُ عن العالم
الداخلي للفنان" transform="translate(806 723)" fill="#da636b" font-size="20" font-family="Tajawal-Regular, Tajawal"><tspan x="-117.28" y="0">يُعبِّرُ عن العالم</tspan><tspan y="0"></tspan><tspan x="-110.72" y="28">الداخلي للفنان</tspan></text>
    </g>
    <text id=":" transform="translate(957 592)" fill="#2d2d2d" font-size="30" font-family="Tajawal-Medium, Tajawal" font-weight="500"><tspan x="-7.38" y="0">:</tspan></text>
  </g>
</svg>
