<svg xmlns="http://www.w3.org/2000/svg" xmlns:xlink="http://www.w3.org/1999/xlink" width="618.533" height="580.27" viewBox="0 0 618.533 580.27">
  <defs>
    <filter id="Path_23" x="105.42" y="445.522" width="276.796" height="134.748" filterUnits="userSpaceOnUse">
      <feOffset input="SourceAlpha"/>
      <feGaussianBlur stdDeviation="5" result="blur"/>
      <feFlood flood-opacity="0.161"/>
      <feComposite operator="in" in2="blur"/>
      <feComposite in="SourceGraphic"/>
    </filter>
    <filter id="Path_26" x="0" y="138.808" width="276.796" height="134.748" filterUnits="userSpaceOnUse">
      <feOffset input="SourceAlpha"/>
      <feGaussianBlur stdDeviation="5" result="blur-2"/>
      <feFlood flood-opacity="0.161"/>
      <feComposite operator="in" in2="blur-2"/>
      <feComposite in="SourceGraphic"/>
    </filter>
    <filter id="Path_28" x="0" y="302.074" width="276.796" height="134.748" filterUnits="userSpaceOnUse">
      <feOffset input="SourceAlpha"/>
      <feGaussianBlur stdDeviation="5" result="blur-3"/>
      <feFlood flood-opacity="0.161"/>
      <feComposite operator="in" in2="blur-3"/>
      <feComposite in="SourceGraphic"/>
    </filter>
    <filter id="Path_20" x="105.42" y="0" width="276.796" height="134.748" filterUnits="userSpaceOnUse">
      <feOffset input="SourceAlpha"/>
      <feGaussianBlur stdDeviation="5" result="blur-4"/>
      <feFlood flood-opacity="0.161"/>
      <feComposite operator="in" in2="blur-4"/>
      <feComposite in="SourceGraphic"/>
    </filter>
    <filter id="Ellipse_1" x="340.103" y="182.237" width="278.43" height="278.43" filterUnits="userSpaceOnUse">
      <feOffset input="SourceAlpha"/>
      <feGaussianBlur stdDeviation="5" result="blur-5"/>
      <feFlood flood-opacity="0.161"/>
      <feComposite operator="in" in2="blur-5"/>
      <feComposite in="SourceGraphic"/>
    </filter>
  </defs>
  <g id="Group_65" data-name="Group 65" transform="translate(-492.734 -238)">
    <g id="Group_36" data-name="Group 36" transform="translate(-4253.267 933.808)">
      <g transform="matrix(1, 0, 0, 1, 4746, -695.81)" filter="url(#Path_23)">
        <path id="Path_23-2" data-name="Path 23" d="M116.694,152.65h151.3a59.776,59.776,0,0,1,59.773,59.773V257.4h-211.1L80.97,206.177l35.694-53.527Z" transform="translate(39.45 307.87)" fill="#fafcff"/>
      </g>
      <path id="Path_24" data-name="Path 24" d="M116.654,152.65h18.708L99.026,206l25.421,36.482H327.756V257.4h-211.1L80.96,206.177Z" transform="translate(4785.488 -387.936)" fill="#da636b"/>
      <path id="Path_25" data-name="Path 25" d="M68.861,259.374l97.189-97.189L155.484,151.62,47.73,259.374Z" transform="translate(5044.18 -389.912)" fill="#da636b"/>
      <g transform="matrix(1, 0, 0, 1, 4746, -695.81)" filter="url(#Path_26)">
        <path id="Path_26-2" data-name="Path 26" d="M152.814,47.56h151.3a59.776,59.776,0,0,1,59.773,59.773v44.975h-211.1L117.09,101.087,152.784,47.56Z" transform="translate(-102.09 106.25)" fill="#fafcff"/>
      </g>
      <path id="Path_27" data-name="Path 27" d="M127.274,47.56h18.708l-36.336,53.352,25.421,36.482H412.8v14.914H127.274L91.58,101.087Z" transform="translate(4669.45 -589.56)" fill="#f25160"/>
      <g transform="matrix(1, 0, 0, 1, 4746, -695.81)" filter="url(#Path_28)">
        <path id="Path_28-2" data-name="Path 28" d="M152.814,103.5h151.3a59.776,59.776,0,0,1,59.773,59.773v44.975h-211.1L117.09,157.027,152.784,103.5Z" transform="translate(-102.09 213.57)" fill="#fafcff"/>
      </g>
      <path id="Path_29" data-name="Path 29" d="M123.194,103.5H141.9l-36.336,53.323L130.987,193.3H420.628v14.943H123.194L87.5,157.027Z" transform="translate(4673.529 -482.234)" fill="#f8a7af"/>
      <path id="Path_30" data-name="Path 30" d="M42.9,190.713c0-.671-.058-1.343-.058-2.043A181.458,181.458,0,0,1,94.762,61.39L224.084,190.713Z" transform="translate(5000.417 -563.026)" fill="#f25160"/>
      <path id="Path_31" data-name="Path 31" d="M224.026,105.7,96.717,233.009A181.3,181.3,0,0,1,42.84,105.7Z" transform="translate(5000.475 -478.013)" fill="#f8a7af"/>
      <g transform="matrix(1, 0, 0, 1, 4746, -695.81)" filter="url(#Path_20)">
        <path id="Path_20-2" data-name="Path 20" d="M116.694,0h151.3a59.776,59.776,0,0,1,59.773,59.773v44.975h-211.1L80.97,53.527Z" transform="translate(39.45 15)" fill="#fafcff"/>
      </g>
      <path id="Path_21" data-name="Path 21" d="M116.654,0h18.708L99.026,53.352l25.421,36.482H327.756v14.943h-211.1L80.96,53.527Z" transform="translate(4785.488 -680.808)" fill="#36beb1"/>
      <path id="Path_22" data-name="Path 22" d="M68.861,30.8l97.189,97.218-10.565,10.565L47.73,30.8Z" transform="translate(5044.18 -621.716)" fill="#36beb1"/>
      <path id="Path_32" data-name="Path 32" d="M172.163,226.724,42.84,97.4A181.424,181.424,0,0,1,172.163,42.62V226.7h0Z" transform="translate(5052.338 -599.038)" fill="#36beb1"/>
      <path id="Path_33" data-name="Path 33" d="M170.149,105.719V285.738A181.5,181.5,0,0,1,42.84,233L170.149,105.69Z" transform="translate(5054.352 -478.033)" fill="#da636b"/>
      <g transform="matrix(1, 0, 0, 1, 4746, -695.81)" filter="url(#Ellipse_1)">
        <ellipse id="Ellipse_1-2" data-name="Ellipse 1" cx="124.215" cy="124.215" rx="124.215" ry="124.215" transform="translate(355.1 197.24)" fill="#fafcff"/>
      </g>
    </g>
    <g id="Group_37" data-name="Group 37" transform="translate(0 87)">
      <text id="الفن_مهارة_تكتسب" data-name="الفن مهارة
تكتسب" transform="translate(1061 468)" fill="#2d2d2d" font-size="41" font-family="Tajawal-Medium, Tajawal" font-weight="500"><tspan x="-184.746" y="0">الفن مهارة</tspan><tspan y="0"></tspan><tspan x="-129.806" y="57">تكتسب</tspan></text>
      <text id=":" transform="translate(931 524)" fill="#2d2d2d" font-size="30" font-family="Tajawal-Medium, Tajawal" font-weight="500"><tspan x="-7.38" y="0">:</tspan></text>
    </g>
    <text id="بالملاحظة" transform="translate(802 308)" fill="#36beb1" font-size="26" font-family="Tajawal-Regular, Tajawal"><tspan x="-107.77" y="0">بالملاحظة</tspan></text>
    <text id="بالدراسة" transform="translate(794 757)" fill="#da636b" font-size="26" font-family="Tajawal-Regular, Tajawal"><tspan x="-90.922" y="0">بالدراسة</tspan></text>
    <text id="بالتجربة_والاكتشاف" data-name="بالتجربة
والاكتشاف" transform="translate(691 427)" fill="#f25160" font-size="26" font-family="Tajawal-Regular, Tajawal"><tspan x="-80.314" y="0">بالتجربة</tspan><tspan y="0"></tspan><tspan x="-115.076" y="36">والاكتشاف</tspan></text>
    <text id="بالخبرة_والممارسة" data-name="بالخبرة
والممارسة" transform="translate(691 589)" fill="#f8a7af" font-size="26" font-family="Tajawal-Regular, Tajawal"><tspan x="-70.876" y="0">بالخبرة</tspan><tspan y="0"></tspan><tspan x="-114.504" y="36">والممارسة</tspan></text>
  </g>
</svg>
