<svg xmlns="http://www.w3.org/2000/svg" xmlns:xlink="http://www.w3.org/1999/xlink" width="618.533" height="321.859" viewBox="0 0 618.533 321.859">
  <defs>
    <filter id="Path_26" x="0" y="0" width="276.796" height="134.748" filterUnits="userSpaceOnUse">
      <feOffset input="SourceAlpha"/>
      <feGaussianBlur stdDeviation="5" result="blur"/>
      <feFlood flood-opacity="0.161"/>
      <feComposite operator="in" in2="blur"/>
      <feComposite in="SourceGraphic"/>
    </filter>
    <filter id="Path_28" x="0" y="163.266" width="276.796" height="134.748" filterUnits="userSpaceOnUse">
      <feOffset input="SourceAlpha"/>
      <feGaussianBlur stdDeviation="5" result="blur-2"/>
      <feFlood flood-opacity="0.161"/>
      <feComposite operator="in" in2="blur-2"/>
      <feComposite in="SourceGraphic"/>
    </filter>
    <filter id="Ellipse_1" x="340.103" y="43.429" width="278.43" height="278.43" filterUnits="userSpaceOnUse">
      <feOffset input="SourceAlpha"/>
      <feGaussianBlur stdDeviation="5" result="blur-3"/>
      <feFlood flood-opacity="0.161"/>
      <feComposite operator="in" in2="blur-3"/>
      <feComposite in="SourceGraphic"/>
    </filter>
  </defs>
  <g id="Group_67" data-name="Group 67" transform="translate(-471.734 -342)">
    <g id="Group_48" data-name="Group 48" transform="translate(-4274.267 899)">
      <g transform="matrix(1, 0, 0, 1, 4746, -557)" filter="url(#Path_26)">
        <path id="Path_26-2" data-name="Path 26" d="M152.814,47.56h151.3a59.776,59.776,0,0,1,59.773,59.773v44.975h-211.1L117.09,101.087,152.784,47.56Z" transform="translate(-102.09 -32.56)" fill="#fafcff"/>
      </g>
      <path id="Path_27" data-name="Path 27" d="M127.274,47.56h18.708l-36.336,53.352,25.421,36.482H412.8v14.914H127.274L91.58,101.087Z" transform="translate(4669.45 -589.56)" fill="#f25160"/>
      <g transform="matrix(1, 0, 0, 1, 4746, -557)" filter="url(#Path_28)">
        <path id="Path_28-2" data-name="Path 28" d="M152.814,103.5h151.3a59.776,59.776,0,0,1,59.773,59.773v44.975h-211.1L117.09,157.027,152.784,103.5Z" transform="translate(-102.09 74.77)" fill="#fafcff"/>
      </g>
      <path id="Path_29" data-name="Path 29" d="M123.194,103.5H141.9l-36.336,53.323L130.987,193.3H420.628v14.943H123.194L87.5,157.027Z" transform="translate(4673.529 -482.234)" fill="#f8a7af"/>
      <path id="Path_30" data-name="Path 30" d="M42.9,190.713c0-.671-.058-1.343-.058-2.043A181.458,181.458,0,0,1,94.762,61.39L224.084,190.713Z" transform="translate(5000.417 -563.026)" fill="#f25160"/>
      <path id="Path_31" data-name="Path 31" d="M224.026,105.7,96.717,233.009A181.3,181.3,0,0,1,42.84,105.7Z" transform="translate(5000.475 -478.013)" fill="#f8a7af"/>
      <g transform="matrix(1, 0, 0, 1, 4746, -557)" filter="url(#Ellipse_1)">
        <ellipse id="Ellipse_1-2" data-name="Ellipse 1" cx="124.215" cy="124.215" rx="124.215" ry="124.215" transform="translate(355.1 58.43)" fill="#fafcff"/>
      </g>
    </g>
    <g id="Group_49" data-name="Group 49" transform="translate(-40 9.192)">
      <text id="مبادئ_التنظيم_الإدراكي" data-name="مبادئ
التنظيم
الإدراكي" transform="translate(1061 468)" fill="#2d2d2d" font-size="41" font-family="Tajawal-Medium, Tajawal" font-weight="500"><tspan x="-99.261" y="0">مبادئ</tspan><tspan y="0"></tspan><tspan x="-130.175" y="57">التنظيم</tspan><tspan y="57"></tspan><tspan x="-129.109" y="114">الإدراكي</tspan></text>
      <text id=":" transform="translate(985 524)" fill="#2d2d2d" font-size="30" font-family="Tajawal-Medium, Tajawal" font-weight="500"><tspan x="-7.38" y="0">:</tspan></text>
    </g>
    <text id="مفهوم_الكُلِّية_في_فهم_الظاهرة" data-name="مفهوم الكُلِّية
في فهم الظاهرة" transform="translate(706.5 392.192)" fill="#f25160" font-size="26" font-family="Tajawal-Regular, Tajawal"><tspan x="-140.036" y="0">مفهوم الكُلِّية</tspan><tspan y="0"></tspan><tspan x="-174.2" y="36">في فهم الظاهرة</tspan></text>
    <text id="الشكل_والأرضية" data-name="الشكل والأرضية" transform="translate(710 578.192)" fill="#f8a7af" font-size="26" font-family="Tajawal-Regular, Tajawal"><tspan x="-170.17" y="0">الشكل والأرضية</tspan></text>
    <text id=":-2" data-name=":" transform="translate(891 593.192)" fill="#2d2d2d" font-size="30" font-family="Tajawal-Medium, Tajawal" font-weight="500"><tspan x="-7.38" y="0">:</tspan></text>
  </g>
</svg>
