<?xml version="1.0" encoding="UTF-8"?><svg id="Layer_2" xmlns="http://www.w3.org/2000/svg" viewBox="0 0 409.33 172.48"><defs><style>.cls-1{fill:#f8a7af;}.cls-2{fill:#f25160;}.cls-3{fill:#da636b;}.cls-4{fill:#36beb1;}</style></defs><g id="Layer_1-2"><g><path class="cls-3" d="M107.73,121.66c0,15.96-5.56,28.65-16.68,38.07-9.81,8.5-22.37,12.75-37.67,12.75-18.05,0-31.98-6.35-41.8-19.03C3.86,143.64,0,132.06,0,118.72c0-9.94,2.29-18.77,6.87-26.49l27.08-5.69c-4.84,8.63-7.26,17.79-7.26,27.47s2.45,16.78,7.36,22.47c4.9,5.69,11.35,8.54,19.33,8.54,17.27,0,25.9-7.78,25.9-23.35V62.01l28.45-15.11V121.66ZM52,51.21c-4.45,0-8.01-1.34-10.69-4.02-2.68-2.68-4.02-6.24-4.02-10.69s1.34-7.98,4.02-10.6c2.68-2.62,6.24-3.93,10.69-3.93s7.78,1.31,10.4,3.93c2.62,2.62,3.92,6.15,3.92,10.6s-1.31,8.01-3.92,10.69c-2.62,2.68-6.08,4.02-10.4,4.02Z"/><path class="cls-4" d="M239.2,135.2h-23.35c-.92,11.77-6.15,21.19-15.7,28.26-7.85,5.89-17.07,8.83-27.67,8.83-8.5,0-17.07-2.42-25.7-7.26v-24.92c7.85,4.45,15.31,6.67,22.37,6.67,4.45,0,8.5-1.24,12.17-3.73,3.66-2.49,5.76-5.37,6.28-8.63-2.88-.13-6.35-.46-10.4-.98-13.08-1.7-23.35-7.19-30.81-16.48-6.15-7.85-9.22-17.07-9.22-27.67,0-14.65,4.05-26.16,12.17-34.54,7.19-7.59,16.74-11.38,28.65-11.38,12.56,0,22.3,3.8,29.24,11.38,5.89,6.54,8.83,15.11,8.83,25.7v27.28h23.15v27.47Zm-51.61-54.55c0-7.07-3.21-10.6-9.62-10.6-8.51,0-12.75,6.08-12.75,18.25s7.46,19.03,22.37,19.03v-26.69Z"/><path class="cls-2" d="M318.08,107.73v27.47h-21.78c-9.16,0-16.75-2.22-22.76-6.67-6.28,4.45-13.93,6.67-22.96,6.67h-21.98v-27.47h19.23c4.18,0,7.13-.85,8.83-2.55,1.7-1.7,2.55-4.64,2.55-8.83V62.01l28.45-15.11v49.45c0,4.19,.85,7.13,2.55,8.83,1.7,1.7,4.64,2.55,8.83,2.55h19.03Zm-44.93-78.49c-4.45,0-8.01-1.34-10.7-4.02-2.68-2.68-4.02-6.25-4.02-10.69s1.34-7.98,4.02-10.6c2.68-2.62,6.25-3.92,10.7-3.92s7.78,1.31,10.4,3.92c2.62,2.62,3.92,6.15,3.92,10.6s-1.31,8.01-3.92,10.69c-2.62,2.68-6.08,4.02-10.4,4.02Z"/><path class="cls-1" d="M307.68,135.2v-27.47h29.04c-2.88-5.49-4.32-11.64-4.32-18.45,0-14.65,3.99-26.16,11.97-34.54,7.19-7.59,16.61-11.38,28.26-11.38s21.19,3.8,27.86,11.38c5.89,6.67,8.83,15.24,8.83,25.7v17.27c0,11.25-3.4,20.34-10.2,27.28-6.54,6.8-15.5,10.2-26.88,10.2h-64.56Zm64.75-103.02c-4.45,0-8.01-1.34-10.69-4.02-2.68-2.68-4.02-6.24-4.02-10.69s1.34-7.98,4.02-10.6c2.68-2.62,6.25-3.93,10.69-3.93s7.78,1.31,10.4,3.93c2.62,2.62,3.92,6.15,3.92,10.6s-1.31,8.01-3.92,10.69c-2.62,2.68-6.08,4.02-10.4,4.02Zm8.44,47.49c0-6.41-2.75-9.61-8.24-9.61-8.11,0-12.17,6.08-12.17,18.25,0,12.95,3.93,19.43,11.77,19.43,5.76,0,8.63-3.14,8.63-9.42v-18.64Z"/></g></g></svg>