<svg xmlns="http://www.w3.org/2000/svg" xmlns:xlink="http://www.w3.org/1999/xlink" width="1024.322" height="675.406" viewBox="0 0 1024.322 675.406">
  <defs>
    <filter id="Ellipse_1" x="668.767" y="245.708" width="355.554" height="355.554" filterUnits="userSpaceOnUse">
      <feOffset input="SourceAlpha"/>
      <feGaussianBlur stdDeviation="5" result="blur"/>
      <feFlood flood-opacity="0.161"/>
      <feComposite operator="in" in2="blur"/>
      <feComposite in="SourceGraphic"/>
    </filter>
    <filter id="Path_20" x="0" y="0" width="276.796" height="134.748" filterUnits="userSpaceOnUse">
      <feOffset input="SourceAlpha"/>
      <feGaussianBlur stdDeviation="5" result="blur-2"/>
      <feFlood flood-opacity="0.161"/>
      <feComposite operator="in" in2="blur-2"/>
      <feComposite in="SourceGraphic"/>
    </filter>
    <filter id="Path_20-2" x="0" y="361.135" width="276.796" height="134.748" filterUnits="userSpaceOnUse">
      <feOffset input="SourceAlpha"/>
      <feGaussianBlur stdDeviation="5" result="blur-3"/>
      <feFlood flood-opacity="0.161"/>
      <feComposite operator="in" in2="blur-3"/>
      <feComposite in="SourceGraphic"/>
    </filter>
    <filter id="Path_23" x="0" y="179.522" width="276.796" height="134.748" filterUnits="userSpaceOnUse">
      <feOffset input="SourceAlpha"/>
      <feGaussianBlur stdDeviation="5" result="blur-4"/>
      <feFlood flood-opacity="0.161"/>
      <feComposite operator="in" in2="blur-4"/>
      <feComposite in="SourceGraphic"/>
    </filter>
    <filter id="Path_23-2" x="0" y="540.657" width="276.796" height="134.748" filterUnits="userSpaceOnUse">
      <feOffset input="SourceAlpha"/>
      <feGaussianBlur stdDeviation="5" result="blur-5"/>
      <feFlood flood-opacity="0.161"/>
      <feComposite operator="in" in2="blur-5"/>
      <feComposite in="SourceGraphic"/>
    </filter>
    <filter id="Path_26" x="322.545" y="133.626" width="276.796" height="134.748" filterUnits="userSpaceOnUse">
      <feOffset input="SourceAlpha"/>
      <feGaussianBlur stdDeviation="5" result="blur-6"/>
      <feFlood flood-opacity="0.161"/>
      <feComposite operator="in" in2="blur-6"/>
      <feComposite in="SourceGraphic"/>
    </filter>
    <filter id="Path_28" x="322.545" y="494.344" width="276.796" height="134.748" filterUnits="userSpaceOnUse">
      <feOffset input="SourceAlpha"/>
      <feGaussianBlur stdDeviation="5" result="blur-7"/>
      <feFlood flood-opacity="0.161"/>
      <feComposite operator="in" in2="blur-7"/>
      <feComposite in="SourceGraphic"/>
    </filter>
  </defs>
  <g id="Group_44" data-name="Group 44" transform="translate(-5383.143 1181.27)">
    <g id="Group_38" data-name="Group 38" transform="translate(0 -0.172)">
      <path id="Path_30" data-name="Path 30" d="M42.931,263.269c0-1.048-.091-2.1-.091-3.189A283.264,283.264,0,0,1,123.892,61.39L325.772,263.269Z" transform="translate(5959.729 -1019.218)" fill="#f25160"/>
      <path id="Path_31" data-name="Path 31" d="M325.681,105.7,126.945,304.435A283.017,283.017,0,0,1,42.84,105.7Z" transform="translate(5959.82 -861.649)" fill="#f8a7af"/>
    </g>
    <g transform="matrix(1, 0, 0, 1, 5383.14, -1181.27)" filter="url(#Ellipse_1)">
      <ellipse id="Ellipse_1-2" data-name="Ellipse 1" cx="162.777" cy="162.777" rx="162.777" ry="162.777" transform="translate(683.77 260.71)" fill="#fafcff"/>
    </g>
    <g id="Group_39" data-name="Group 39" transform="translate(9.99 515.729)">
      <g transform="matrix(1, 0, 0, 1, 5373.15, -1697)" filter="url(#Path_20)">
        <path id="Path_20-3" data-name="Path 20" d="M116.694,0h151.3a59.776,59.776,0,0,1,59.773,59.773v44.975h-211.1L80.97,53.527Z" transform="translate(-65.97 15)" fill="#fafcff"/>
      </g>
      <path id="Path_21" data-name="Path 21" d="M116.654,0h18.708L99.026,53.352l25.421,36.482H327.756v14.943h-211.1L80.96,53.527Z" transform="translate(5307.222 -1682)" fill="#36beb1"/>
      <path id="Path_22" data-name="Path 22" d="M68.861,30.8l97.189,97.218-10.565,10.565L47.73,30.8Z" transform="translate(5565.913 -1622.907)" fill="#36beb1"/>
    </g>
    <g id="Group_41" data-name="Group 41" transform="translate(9.99 876.864)">
      <g transform="matrix(1, 0, 0, 1, 5373.15, -2058.13)" filter="url(#Path_20-2)">
        <path id="Path_20-4" data-name="Path 20" d="M116.694,0h151.3a59.776,59.776,0,0,1,59.773,59.773v44.975h-211.1L80.97,53.527Z" transform="translate(-65.97 376.14)" fill="#fafcff"/>
      </g>
      <path id="Path_21-2" data-name="Path 21" d="M116.654,0h18.708L99.026,53.352l25.421,36.482H327.756v14.943h-211.1L80.96,53.527Z" transform="translate(5307.222 -1682)" fill="#36beb1"/>
      <path id="Path_22-2" data-name="Path 22" d="M68.861,30.8l97.189,97.218-10.565,10.565L47.73,30.8Z" transform="translate(5565.913 -1622.907)" fill="#36beb1"/>
    </g>
    <g id="Group_40" data-name="Group 40" transform="translate(9.99 249.729)">
      <g transform="matrix(1, 0, 0, 1, 5373.15, -1431)" filter="url(#Path_23)">
        <path id="Path_23-3" data-name="Path 23" d="M116.694,152.65h151.3a59.776,59.776,0,0,1,59.773,59.773V257.4h-211.1L80.97,206.177l35.694-53.527Z" transform="translate(-65.97 41.87)" fill="#fafcff"/>
      </g>
      <path id="Path_24" data-name="Path 24" d="M116.654,152.65h18.708L99.026,206l25.421,36.482H327.756V257.4h-211.1L80.96,206.177Z" transform="translate(5307.222 -1389.127)" fill="#da636b"/>
      <path id="Path_25" data-name="Path 25" d="M68.861,259.374l97.189-97.189L155.484,151.62,47.73,259.374Z" transform="translate(5565.913 -1391.104)" fill="#da636b"/>
    </g>
    <g id="Group_42" data-name="Group 42" transform="translate(9.99 610.864)">
      <g transform="matrix(1, 0, 0, 1, 5373.15, -1792.13)" filter="url(#Path_23-2)">
        <path id="Path_23-4" data-name="Path 23" d="M116.694,152.65h151.3a59.776,59.776,0,0,1,59.773,59.773V257.4h-211.1L80.97,206.177l35.694-53.527Z" transform="translate(-65.97 403.01)" fill="#fafcff"/>
      </g>
      <path id="Path_24-2" data-name="Path 24" d="M116.654,152.65h18.708L99.026,206l25.421,36.482H327.756V257.4h-211.1L80.96,206.177Z" transform="translate(5307.222 -1389.127)" fill="#da636b"/>
      <path id="Path_25-2" data-name="Path 25" d="M68.861,259.374l97.189-97.189L155.484,151.62,47.73,259.374Z" transform="translate(5565.913 -1391.104)" fill="#da636b"/>
    </g>
    <g transform="matrix(1, 0, 0, 1, 5383.14, -1181.27)" filter="url(#Path_26)">
      <path id="Path_26-2" data-name="Path 26" d="M152.814,47.56h151.3a59.776,59.776,0,0,1,59.773,59.773v44.975h-211.1L117.09,101.087,152.784,47.56Z" transform="translate(220.46 101.07)" fill="#fafcff"/>
    </g>
    <path id="Path_27" data-name="Path 27" d="M127.274,47.56h18.708l-36.336,53.352,25.421,36.482,314.624.335v14.914l-322.417-.335L91.58,101.087Z" transform="translate(5629.138 -1080.205)" fill="#f25160"/>
    <g transform="matrix(1, 0, 0, 1, 5383.14, -1181.27)" filter="url(#Path_28)">
      <path id="Path_28-2" data-name="Path 28" d="M152.814,103.5h151.3a59.776,59.776,0,0,1,59.773,59.773v44.975h-211.1L117.09,157.027,152.784,103.5Z" transform="translate(220.46 405.84)" fill="#fafcff"/>
    </g>
    <path id="Path_29" data-name="Path 29" d="M123.194,103.5H141.9l-36.336,53.323L130.987,193.3H451.575v14.943H123.194L87.5,157.027Z" transform="translate(5633.218 -775.426)" fill="#f8a7af"/>
    <text id="العوامل_التي_تدخل_في_بناء_العمل_الفني" data-name="العوامل التي
تدخل في بناء
العمل الفني" transform="translate(6335 -801)" fill="#2d2d2d" font-size="41" font-family="Tajawal-Medium, Tajawal" font-weight="500"><tspan x="-212.298" y="0">العوامل التي</tspan><tspan y="0"></tspan><tspan x="-216.972" y="57">تدخل في بناء</tspan><tspan y="57"></tspan><tspan x="-206.148" y="114">العمل الفني</tspan></text>
    <text id=":" transform="translate(6129 -685)" fill="#2d2d2d" font-size="30" font-family="Tajawal-Medium, Tajawal" font-weight="500"><tspan x="-7.38" y="0">:</tspan></text>
    <text id="البُعد_الإدراكي" data-name="البُعد الإدراكي" transform="translate(5916 -975)" fill="#f25160" font-size="26" font-family="Tajawal-Medium, Tajawal" font-weight="500"><tspan x="-143.676" y="0">البُعد الإدراكي</tspan></text>
    <text id="العوامل_النفسية" data-name="العوامل النفسية" transform="translate(5607 -1107)" fill="#36beb1" font-size="24" font-family="Tajawal-Regular, Tajawal"><tspan x="-164.328" y="0">العوامل النفسية</tspan></text>
    <text id="هيكل_العمل_الفني" data-name="هيكل العمل الفني" transform="translate(5617 -747)" fill="#36beb1" font-size="24" font-family="Tajawal-Regular, Tajawal"><tspan x="-176.352" y="0">هيكل العمل الفني</tspan></text>
    <text id="العوامل_الموضوعية" data-name="العوامل الموضوعية" transform="translate(5628 -926)" fill="#da636b" font-size="24" font-family="Tajawal-Regular, Tajawal"><tspan x="-194.376" y="0">العوامل الموضوعية</tspan></text>
    <text id="عناصر_بناء_العمل_الفني" data-name="عناصر بناء
العمل الفني" transform="translate(5577 -588)" fill="#da636b" font-size="24" font-family="Tajawal-Regular, Tajawal"><tspan x="-99.936" y="0">عناصر بناء</tspan><tspan y="0"></tspan><tspan x="-117.576" y="33">العمل الفني</tspan></text>
    <text id="البُعد_البنائي" data-name="البُعد البنائي" transform="translate(5903 -615)" fill="#f8a7af" font-size="26" font-family="Tajawal-Medium, Tajawal" font-weight="500"><tspan x="-127.634" y="0">البُعد البنائي</tspan></text>
  </g>
</svg>
