<svg xmlns="http://www.w3.org/2000/svg" xmlns:xlink="http://www.w3.org/1999/xlink" width="936.114" height="321.859" viewBox="0 0 936.114 321.859">
  <defs>
    <filter id="Path_35" x="28.199" y="163.266" width="296.648" height="134.748" filterUnits="userSpaceOnUse">
      <feOffset input="SourceAlpha"/>
      <feGaussianBlur stdDeviation="5" result="blur"/>
      <feFlood flood-opacity="0.161"/>
      <feComposite operator="in" in2="blur"/>
      <feComposite in="SourceGraphic"/>
    </filter>
    <filter id="Path_20" x="0" y="0" width="324.908" height="134.748" filterUnits="userSpaceOnUse">
      <feOffset input="SourceAlpha"/>
      <feGaussianBlur stdDeviation="5" result="blur-2"/>
      <feFlood flood-opacity="0.161"/>
      <feComposite operator="in" in2="blur-2"/>
      <feComposite in="SourceGraphic"/>
    </filter>
    <filter id="Path_11" x="317.58" y="0" width="276.796" height="134.748" filterUnits="userSpaceOnUse">
      <feOffset input="SourceAlpha"/>
      <feGaussianBlur stdDeviation="5" result="blur-3"/>
      <feFlood flood-opacity="0.161"/>
      <feComposite operator="in" in2="blur-3"/>
      <feComposite in="SourceGraphic"/>
    </filter>
    <filter id="Path_13" x="317.58" y="163.266" width="276.796" height="134.748" filterUnits="userSpaceOnUse">
      <feOffset input="SourceAlpha"/>
      <feGaussianBlur stdDeviation="5" result="blur-4"/>
      <feFlood flood-opacity="0.161"/>
      <feComposite operator="in" in2="blur-4"/>
      <feComposite in="SourceGraphic"/>
    </filter>
    <filter id="Path_19" x="657.683" y="43.429" width="278.43" height="278.43" filterUnits="userSpaceOnUse">
      <feOffset input="SourceAlpha"/>
      <feGaussianBlur stdDeviation="5" result="blur-5"/>
      <feFlood flood-opacity="0.161"/>
      <feComposite operator="in" in2="blur-5"/>
      <feComposite in="SourceGraphic"/>
    </filter>
  </defs>
  <g id="Group_64" data-name="Group 64" transform="translate(-322.943 -335)">
    <g transform="matrix(1, 0, 0, 1, 322.94, 335)" filter="url(#Path_35)">
      <path id="Path_35-2" data-name="Path 35" d="M155.687,103.5h163.47c35.664,0,64.581,26.763,64.581,59.773v44.975H155.655L117.09,157.027,155.655,103.5Z" transform="translate(-73.89 74.77)" fill="#fafcff"/>
    </g>
    <path id="Path_34" data-name="Path 34" d="M123.194,103.5H141.9l-36.336,53.323L130.987,193.3H420.628v14.943H123.194L87.5,157.027Z" transform="translate(278.672 409.766)" fill="#36beb1"/>
    <g transform="matrix(1, 0, 0, 1, 322.94, 335)" filter="url(#Path_20)">
      <path id="Path_20-2" data-name="Path 20" d="M123.658,0H304.453c39.444,0,71.425,26.763,71.425,59.773v44.975H123.623L80.97,53.527Z" transform="translate(-65.97 15)" fill="#fafcff"/>
    </g>
    <path id="Path_21" data-name="Path 21" d="M116.654,0h18.708L99.026,53.352l25.421,36.482h317.84v14.943H116.654L80.96,53.527Z" transform="translate(257.012 350)" fill="#36beb1"/>
    <g transform="matrix(1, 0, 0, 1, 322.94, 335)" filter="url(#Path_11)">
      <path id="Path_11-2" data-name="Path 11" d="M152.813,47.56h151.3a59.776,59.776,0,0,1,59.773,59.773v44.975h-211.1L117.09,101.087,152.784,47.56Z" transform="translate(215.49 -32.56)" fill="#fafcff"/>
    </g>
    <path id="Path_12" data-name="Path 12" d="M127.274,47.56h18.708l-36.336,53.352,25.421,36.482H412.8v14.914H127.274L91.58,101.087Z" transform="translate(563.973 302.44)" fill="#f25160"/>
    <g transform="matrix(1, 0, 0, 1, 322.94, 335)" filter="url(#Path_13)">
      <path id="Path_13-2" data-name="Path 13" d="M152.813,103.5h151.3a59.776,59.776,0,0,1,59.773,59.773v44.975h-211.1L117.09,157.027,152.784,103.5Z" transform="translate(215.49 74.77)" fill="#fafcff"/>
    </g>
    <path id="Path_14" data-name="Path 14" d="M123.194,103.5H141.9l-36.336,53.323L130.987,193.3H420.628v14.943H123.194L87.5,157.027Z" transform="translate(568.052 409.766)" fill="#f8a7af"/>
    <path id="Path_15" data-name="Path 15" d="M42.9,190.713c0-.671-.058-1.343-.058-2.043A181.458,181.458,0,0,1,94.762,61.39L224.084,190.713Z" transform="translate(894.94 328.974)" fill="#f25160"/>
    <path id="Path_16" data-name="Path 16" d="M224.026,105.7,96.717,233.009A181.3,181.3,0,0,1,42.84,105.7Z" transform="translate(894.999 413.987)" fill="#f8a7af"/>
    <g transform="matrix(1, 0, 0, 1, 322.94, 335)" filter="url(#Path_19)">
      <path id="Path_19-2" data-name="Path 19" d="M124.215,0A124.215,124.215,0,1,0,248.43,124.215,124.215,124.215,0,0,0,124.215,0Z" transform="translate(672.68 58.43)" fill="#fafcff"/>
    </g>
    <text id="مكوّنات_العمل_الفني" data-name="مكوّنات
العمل
الفني" transform="translate(1179.842 469.766)" fill="#2d2d2d" font-size="41" font-family="Tajawal-Medium, Tajawal" font-weight="500"><tspan x="-127.92" y="0">مكوّنات</tspan><tspan y="0"></tspan><tspan x="-109.101" y="57">العمل</tspan><tspan y="57"></tspan><tspan x="-87.494" y="114">الفني</tspan></text>
    <text id="الشكل" transform="translate(822.116 410.374)" fill="#f25160" font-size="26" font-family="Tajawal-Medium, Tajawal" font-weight="500"><tspan x="-75.712" y="0">الشكل</tspan></text>
    <text id="المضمون" transform="translate(846.79 573.64)" fill="#f8a7af" font-size="26" font-family="Tajawal-Medium, Tajawal" font-weight="500"><tspan x="-106.808" y="0">المضمون</tspan></text>
    <text id=":" transform="translate(1093.79 586.192)" fill="#2d2d2d" font-size="30" font-family="Tajawal-Medium, Tajawal" font-weight="500"><tspan x="-7.38" y="0">:</tspan></text>
    <text id="الهيئة_أو_الهيكل_العام_للعمل_الفني" data-name="الهيئة أو الهيكل العام
للعمل الفني" transform="translate(555.397 392.374)" fill="#36beb1" font-size="16" font-family="Tajawal-Regular, Tajawal"><tspan x="-140.24" y="0">الهيئة أو الهيكل العام</tspan><tspan y="0"></tspan><tspan x="-79.776" y="22">للعمل الفني</tspan></text>
    <text id="معاني_الرسالة_التي_يريد_الفنان_إيصالها_للآخرين_قد_تكون_رسالة_ذاتية_أو_موضوعية" data-name="معاني الرسالة التي يريد الفنان
إيصالها للآخرين قد تكون
رسالة ذاتية أو موضوعية" transform="translate(601.897 546.192)" fill="#36beb1" font-size="16" font-family="Tajawal-Regular, Tajawal"><tspan x="-188.976" y="0">معاني الرسالة التي يريد الفنان</tspan><tspan y="0"></tspan><tspan x="-157.104" y="22">إيصالها للآخرين قد تكون</tspan><tspan y="22"></tspan><tspan x="-154.256" y="44">رسالة ذاتية أو موضوعية</tspan></text>
  </g>
</svg>
